<mxfile host="app.diagrams.net" agent="Mozilla/5.0 (Macintosh; Intel Mac OS X 10_15_7) AppleWebKit/537.36 (KHTML, like Gecko) Chrome/128.0.0.0 Safari/537.36" version="24.7.7">
  <diagram name="Page-1" id="SHTIm0C4P8juVVjmeNJz">
    <mxGraphModel dx="954" dy="1658" grid="1" gridSize="10" guides="1" tooltips="1" connect="1" arrows="1" fold="1" page="1" pageScale="1" pageWidth="850" pageHeight="1100" math="0" shadow="0">
      <root>
        <mxCell id="0" />
        <mxCell id="1" parent="0" />
        <mxCell id="14BezWaHKW40n7FnXkfG-1" value="DB" style="strokeWidth=2;html=1;shape=mxgraph.flowchart.database;whiteSpace=wrap;" vertex="1" parent="1">
          <mxGeometry x="290" y="870" width="60" height="60" as="geometry" />
        </mxCell>
        <mxCell id="14BezWaHKW40n7FnXkfG-2" value="genpw()" style="rounded=1;whiteSpace=wrap;html=1;" vertex="1" parent="1">
          <mxGeometry x="510" y="280" width="120" height="60" as="geometry" />
        </mxCell>
        <mxCell id="14BezWaHKW40n7FnXkfG-3" value="GetDBuser()&lt;div&gt;&lt;br&gt;&lt;/div&gt;" style="rounded=1;whiteSpace=wrap;html=1;" vertex="1" parent="1">
          <mxGeometry x="10" y="290" width="100" height="40" as="geometry" />
        </mxCell>
        <mxCell id="14BezWaHKW40n7FnXkfG-4" value="extAuth=&lt;div&gt;extBinary=&lt;/div&gt;&lt;div&gt;userFunc=&lt;/div&gt;&lt;div&gt;pwdFunc=&lt;/div&gt;&lt;div&gt;credList=&lt;/div&gt;" style="whiteSpace=wrap;html=1;shape=mxgraph.basic.document" vertex="1" parent="1">
          <mxGeometry x="550" y="-10" width="100" height="100" as="geometry" />
        </mxCell>
        <mxCell id="14BezWaHKW40n7FnXkfG-5" value="DBproperties&lt;div&gt;&lt;br&gt;&lt;/div&gt;" style="text;html=1;align=center;verticalAlign=middle;resizable=0;points=[];autosize=1;strokeColor=none;fillColor=none;" vertex="1" parent="1">
          <mxGeometry x="555" y="90" width="90" height="40" as="geometry" />
        </mxCell>
        <mxCell id="14BezWaHKW40n7FnXkfG-33" style="edgeStyle=orthogonalEdgeStyle;rounded=0;orthogonalLoop=1;jettySize=auto;html=1;" edge="1" parent="1" source="14BezWaHKW40n7FnXkfG-6">
          <mxGeometry relative="1" as="geometry">
            <mxPoint x="210" y="590" as="targetPoint" />
          </mxGeometry>
        </mxCell>
        <mxCell id="14BezWaHKW40n7FnXkfG-34" value="read/get user from ad.so" style="edgeLabel;html=1;align=center;verticalAlign=middle;resizable=0;points=[];" vertex="1" connectable="0" parent="14BezWaHKW40n7FnXkfG-33">
          <mxGeometry x="0.1859" y="-2" relative="1" as="geometry">
            <mxPoint as="offset" />
          </mxGeometry>
        </mxCell>
        <mxCell id="14BezWaHKW40n7FnXkfG-6" value="newGetDBuser()&lt;div&gt;&lt;br&gt;&lt;/div&gt;" style="rounded=1;whiteSpace=wrap;html=1;" vertex="1" parent="1">
          <mxGeometry x="150" y="420" width="120" height="60" as="geometry" />
        </mxCell>
        <mxCell id="14BezWaHKW40n7FnXkfG-35" style="edgeStyle=orthogonalEdgeStyle;rounded=0;orthogonalLoop=1;jettySize=auto;html=1;" edge="1" parent="1" source="14BezWaHKW40n7FnXkfG-7">
          <mxGeometry relative="1" as="geometry">
            <mxPoint x="420" y="590" as="targetPoint" />
          </mxGeometry>
        </mxCell>
        <mxCell id="14BezWaHKW40n7FnXkfG-36" value="read/get DB passwd from ad.so" style="edgeLabel;html=1;align=center;verticalAlign=middle;resizable=0;points=[];" vertex="1" connectable="0" parent="14BezWaHKW40n7FnXkfG-35">
          <mxGeometry x="-0.0045" y="-2" relative="1" as="geometry">
            <mxPoint x="-2" y="-1" as="offset" />
          </mxGeometry>
        </mxCell>
        <mxCell id="14BezWaHKW40n7FnXkfG-7" value="newgenpw()" style="rounded=1;whiteSpace=wrap;html=1;" vertex="1" parent="1">
          <mxGeometry x="360" y="420" width="120" height="60" as="geometry" />
        </mxCell>
        <mxCell id="14BezWaHKW40n7FnXkfG-12" value="" style="edgeStyle=orthogonalEdgeStyle;rounded=0;orthogonalLoop=1;jettySize=auto;html=1;" edge="1" parent="1" source="14BezWaHKW40n7FnXkfG-8" target="14BezWaHKW40n7FnXkfG-11">
          <mxGeometry relative="1" as="geometry" />
        </mxCell>
        <mxCell id="14BezWaHKW40n7FnXkfG-8" value="fptr_getUser" style="ellipse;whiteSpace=wrap;html=1;" vertex="1" parent="1">
          <mxGeometry x="140" y="160" width="120" height="60" as="geometry" />
        </mxCell>
        <mxCell id="14BezWaHKW40n7FnXkfG-16" value="" style="edgeStyle=orthogonalEdgeStyle;rounded=0;orthogonalLoop=1;jettySize=auto;html=1;" edge="1" parent="1" source="14BezWaHKW40n7FnXkfG-9" target="14BezWaHKW40n7FnXkfG-15">
          <mxGeometry relative="1" as="geometry" />
        </mxCell>
        <mxCell id="14BezWaHKW40n7FnXkfG-9" value="fptr_getPWD" style="ellipse;whiteSpace=wrap;html=1;" vertex="1" parent="1">
          <mxGeometry x="370" y="170" width="100" height="60" as="geometry" />
        </mxCell>
        <mxCell id="14BezWaHKW40n7FnXkfG-13" style="edgeStyle=orthogonalEdgeStyle;rounded=0;orthogonalLoop=1;jettySize=auto;html=1;" edge="1" parent="1" source="14BezWaHKW40n7FnXkfG-11">
          <mxGeometry relative="1" as="geometry">
            <mxPoint x="200" y="400" as="targetPoint" />
          </mxGeometry>
        </mxCell>
        <mxCell id="14BezWaHKW40n7FnXkfG-14" value="YES" style="edgeLabel;html=1;align=center;verticalAlign=middle;resizable=0;points=[];" vertex="1" connectable="0" parent="14BezWaHKW40n7FnXkfG-13">
          <mxGeometry x="0.1609" relative="1" as="geometry">
            <mxPoint as="offset" />
          </mxGeometry>
        </mxCell>
        <mxCell id="14BezWaHKW40n7FnXkfG-21" style="edgeStyle=orthogonalEdgeStyle;rounded=0;orthogonalLoop=1;jettySize=auto;html=1;entryX=1;entryY=0.5;entryDx=0;entryDy=0;" edge="1" parent="1" source="14BezWaHKW40n7FnXkfG-11" target="14BezWaHKW40n7FnXkfG-3">
          <mxGeometry relative="1" as="geometry" />
        </mxCell>
        <mxCell id="14BezWaHKW40n7FnXkfG-22" value="NO" style="edgeLabel;html=1;align=center;verticalAlign=middle;resizable=0;points=[];" vertex="1" connectable="0" parent="14BezWaHKW40n7FnXkfG-21">
          <mxGeometry x="-0.0667" y="-1" relative="1" as="geometry">
            <mxPoint as="offset" />
          </mxGeometry>
        </mxCell>
        <mxCell id="14BezWaHKW40n7FnXkfG-11" value="extAuth==Y" style="rhombus;whiteSpace=wrap;html=1;" vertex="1" parent="1">
          <mxGeometry x="155" y="270" width="90" height="80" as="geometry" />
        </mxCell>
        <mxCell id="14BezWaHKW40n7FnXkfG-17" value="YES" style="edgeStyle=orthogonalEdgeStyle;rounded=0;orthogonalLoop=1;jettySize=auto;html=1;" edge="1" parent="1" source="14BezWaHKW40n7FnXkfG-15" target="14BezWaHKW40n7FnXkfG-7">
          <mxGeometry relative="1" as="geometry" />
        </mxCell>
        <mxCell id="14BezWaHKW40n7FnXkfG-23" value="NO" style="edgeStyle=orthogonalEdgeStyle;rounded=0;orthogonalLoop=1;jettySize=auto;html=1;" edge="1" parent="1" source="14BezWaHKW40n7FnXkfG-15" target="14BezWaHKW40n7FnXkfG-2">
          <mxGeometry relative="1" as="geometry" />
        </mxCell>
        <mxCell id="14BezWaHKW40n7FnXkfG-15" value="extAuth==Y" style="rhombus;whiteSpace=wrap;html=1;" vertex="1" parent="1">
          <mxGeometry x="380" y="270" width="80" height="80" as="geometry" />
        </mxCell>
        <mxCell id="14BezWaHKW40n7FnXkfG-31" style="edgeStyle=orthogonalEdgeStyle;rounded=0;orthogonalLoop=1;jettySize=auto;html=1;" edge="1" parent="1" source="14BezWaHKW40n7FnXkfG-26">
          <mxGeometry relative="1" as="geometry">
            <mxPoint x="300" y="140" as="targetPoint" />
          </mxGeometry>
        </mxCell>
        <mxCell id="14BezWaHKW40n7FnXkfG-32" value="set function pointer" style="edgeLabel;html=1;align=center;verticalAlign=middle;resizable=0;points=[];" vertex="1" connectable="0" parent="14BezWaHKW40n7FnXkfG-31">
          <mxGeometry x="-0.0355" relative="1" as="geometry">
            <mxPoint as="offset" />
          </mxGeometry>
        </mxCell>
        <mxCell id="14BezWaHKW40n7FnXkfG-26" value="connect_oracle" style="rounded=1;whiteSpace=wrap;html=1;" vertex="1" parent="1">
          <mxGeometry x="240" y="10" width="120" height="60" as="geometry" />
        </mxCell>
        <mxCell id="14BezWaHKW40n7FnXkfG-27" style="edgeStyle=orthogonalEdgeStyle;rounded=0;orthogonalLoop=1;jettySize=auto;html=1;entryX=0;entryY=0.5;entryDx=0;entryDy=0;entryPerimeter=0;" edge="1" parent="1" source="14BezWaHKW40n7FnXkfG-26" target="14BezWaHKW40n7FnXkfG-4">
          <mxGeometry relative="1" as="geometry" />
        </mxCell>
        <mxCell id="14BezWaHKW40n7FnXkfG-30" value="read all DB properties" style="edgeLabel;html=1;align=center;verticalAlign=middle;resizable=0;points=[];" vertex="1" connectable="0" parent="14BezWaHKW40n7FnXkfG-27">
          <mxGeometry x="0.3222" relative="1" as="geometry">
            <mxPoint as="offset" />
          </mxGeometry>
        </mxCell>
        <mxCell id="14BezWaHKW40n7FnXkfG-37" value="combine username/pwd/token to login" style="rounded=0;whiteSpace=wrap;html=1;" vertex="1" parent="1">
          <mxGeometry x="260" y="770" width="120" height="60" as="geometry" />
        </mxCell>
        <mxCell id="14BezWaHKW40n7FnXkfG-38" style="edgeStyle=orthogonalEdgeStyle;rounded=0;orthogonalLoop=1;jettySize=auto;html=1;entryX=0.5;entryY=0;entryDx=0;entryDy=0;entryPerimeter=0;" edge="1" parent="1" source="14BezWaHKW40n7FnXkfG-37" target="14BezWaHKW40n7FnXkfG-1">
          <mxGeometry relative="1" as="geometry" />
        </mxCell>
      </root>
    </mxGraphModel>
  </diagram>
</mxfile>
